<?xml version="1.0" encoding="iso-8859-1"?>
<!-- Generator: Adobe Illustrator 19.0.0, SVG Export Plug-In . SVG Version: 6.00 Build 0)  -->
<svg xmlns="http://www.w3.org/2000/svg" xmlns:xlink="http://www.w3.org/1999/xlink" version="1.1" id="Layer_1" x="0px" y="0px" viewBox="0 0 512.037 512.037" style="enable-background:new 0 0 512.037 512.037;" xml:space="preserve" width="512px" height="512px">
<g>
	<g>
		<path d="M105.917,97.306c-1.707-2.048-12.544-10.325-41.557-23.637c7.936,30.976,14.251,43.093,15.957,45.141    c4.906,6.317,12.322,10.18,20.309,10.581c2.962,0.15,5.877-0.791,8.192-2.645c2.853-2.731,4.405-6.549,4.267-10.496    C113.03,109.283,110.488,102.565,105.917,97.306z" fill="#FFFFFF"/>
	</g>
</g>
<g>
	<g>
		<path d="M406.12,97.306c-4.571,5.259-7.113,11.977-7.168,18.944c-0.138,3.947,1.414,7.765,4.267,10.496    c2.315,1.854,5.23,2.795,8.192,2.645c7.988-0.401,15.404-4.265,20.309-10.581c1.707-2.048,8.021-14.165,16.042-45.056    C418.664,86.981,407.827,95.258,406.12,97.306z" fill="#FFFFFF"/>
	</g>
</g>
<g>
	<g>
		<path d="M506.472,3.525c-4.121-3.479-9.8-4.458-14.848-2.56c-38.229,13.739-105.301,40.192-124.757,63.488    c-5.356,6.43-9.727,13.619-12.971,21.333c-27.888-22.06-62.321-34.219-97.877-34.56c-35.557,0.341-69.99,12.5-97.877,34.56    c-3.244-7.714-7.615-14.904-12.971-21.333C125.714,41.157,58.643,14.703,20.498,0.965C15.424-0.941,9.716,0.038,5.565,3.525    C1.381,7.029-0.659,12.47,0.189,17.861c6.997,40.107,21.504,110.763,40.875,133.803c11.507,14,27.42,23.687,45.141,27.477    c-2.389,5.205-4.779,10.667-7.168,16.555c-1.109,2.731-2.219,5.632-3.243,8.448l-0.427,1.109    c-14.466,37.215-22.627,76.581-24.149,116.48c-0.015,18.245,2.807,36.382,8.363,53.76c-18.851,0.047-34.095,15.367-34.048,34.219    s15.367,34.095,34.219,34.048c0.372,0.014,0.744-0.015,1.109-0.085c-0.721,2.817-1.093,5.711-1.109,8.619    c-0.005,18.846,15.269,34.128,34.115,34.133c0.006,0,0.012,0,0.019,0c6.104,0.029,12.097-1.624,17.323-4.779    c2.036,18.704,18.849,32.215,37.553,30.179c10.357-1.128,19.629-6.933,25.167-15.757c52.659,21.276,111.522,21.276,164.181,0    c10.001,15.936,31.027,20.747,46.963,10.746c8.825-5.538,14.63-14.81,15.757-25.167c5.225,3.154,11.219,4.808,17.323,4.779    c18.846,0.005,34.128-15.269,34.133-34.115c0-0.006,0-0.012,0-0.019c-0.016-2.907-0.389-5.802-1.109-8.619    c0.365,0.071,0.737,0.099,1.109,0.085c18.851,0.047,34.172-15.197,34.219-34.048s-15.197-34.172-34.048-34.219    c5.556-17.378,8.377-35.515,8.363-53.76c-1.522-39.899-9.684-79.265-24.149-116.48v-0.085    c-3.413-9.216-6.997-17.835-10.837-26.027c17.705-3.773,33.596-13.464,45.056-27.477c9.728-11.52,18.261-34.901,25.173-60.501    c6.912-25.6,12.288-53.248,15.787-73.301C512.696,12.47,510.656,7.029,506.472,3.525z M67.261,129.733    c-5.547-6.571-12.629-25.429-19.541-51.712c-2.336-9.195,3.225-18.542,12.42-20.878c3.772-0.958,7.757-0.607,11.303,0.995    c24.747,11.349,41.984,21.589,47.531,28.16c6.155,7.235,9.991,16.155,11.008,25.6c0.142,1.617,0.199,3.241,0.171,4.864    c0.049,8.811-3.716,17.213-10.325,23.04c-4.463,3.746-9.98,6.012-15.787,6.485c-1.109,0.085-2.219,0.171-3.413,0.171    C87.593,146.035,75.399,139.922,67.261,129.733z M76.477,413.21c-1.706,7.871-8.671,13.487-16.725,13.483    c-9.426,0-17.067-7.641-17.067-17.067s7.641-17.067,17.067-17.067c2.35,0.021,4.671,0.514,6.827,1.451    c2.102,4.902,4.466,9.688,7.083,14.336c0.939,1.621,1.877,3.157,2.816,4.779V413.21z M93.885,469.359    c-9.443-0.017-17.085-7.686-17.068-17.129c0.015-8.562,6.361-15.793,14.849-16.919l2.56,3.072    c1.792,2.133,3.584,4.181,5.461,6.229c1.707,1.877,3.499,3.755,5.291,5.632c1.877,1.877,3.755,3.669,5.632,5.461    C108.996,463.658,102,469.37,93.885,469.359z M145.085,494.959c-9.414-0.028-17.039-7.653-17.067-17.067    c-0.026-2.263,0.44-4.505,1.365-6.571h0.085c2.219,1.621,4.523,3.243,6.827,4.779s4.608,3.072,6.997,4.523    c2.048,1.195,4.096,2.475,6.229,3.584c0.35,0.258,0.721,0.486,1.109,0.683c2.475,1.365,5.035,2.731,7.509,4.011    C154.903,492.756,150.12,494.976,145.085,494.959z M162.152,426.693h-17.067c-9.414-0.028-17.039-7.653-17.067-17.067v-8.533    h-8.533c-9.414-0.028-17.039-7.653-17.067-17.067v-17.067c0-4.713,3.82-8.533,8.533-8.533s8.533,3.82,8.533,8.533v17.067h8.533    c9.414,0.028,17.039,7.652,17.067,17.067v8.533h17.067c4.713,0,8.533,3.82,8.533,8.533S166.865,426.693,162.152,426.693z     M196.285,401.093h-17.067c-9.425,0-17.066-7.64-17.067-17.065c0-0.001,0-0.001,0-0.002v-8.533h-8.533    c-9.414-0.028-17.039-7.652-17.067-17.067v-17.067c0-4.713,3.82-8.533,8.533-8.533s8.533,3.821,8.533,8.533v17.067h8.533    c9.414,0.028,17.039,7.652,17.067,17.067v8.533h17.067c4.713,0,8.533,3.821,8.533,8.533    C204.818,397.272,200.998,401.093,196.285,401.093z M256.018,375.493c-23.561-0.009-42.658-19.106-42.667-42.667    c-0.03-2.872,0.285-5.737,0.939-8.533h-18.005c-47.117,0.011-85.322-38.176-85.333-85.293c0-0.013,0-0.027,0-0.04    c-0.055-12.801,2.836-25.444,8.448-36.949c1.802-3.647,3.825-7.181,6.059-10.581c18.65-27.874,51.924-42.206,84.992-36.608    c-0.793-4.916-2.378-9.671-4.693-14.08c-3.857-6.196-3.723-14.077,0.341-20.139c5.632-7.936,18.005-11.179,34.816-9.045    c24.661,3.157,55.381,17.579,68.437,42.325c2.048-0.171,4.181-0.256,6.4-0.256c27.493-0.044,53.309,13.214,69.291,35.584    c3.744,5.131,6.866,10.688,9.301,16.555c18.355,43.383-1.935,93.432-45.319,111.787c-10.527,4.454-21.843,6.746-33.273,6.741    h-18.005c0.654,2.797,0.969,5.662,0.939,8.533C298.677,356.387,279.579,375.484,256.018,375.493z M332.818,401.093h-17.067    c-4.713,0-8.533-3.821-8.533-8.533c0-4.713,3.82-8.533,8.533-8.533h17.067v-8.533c0.028-9.414,7.652-17.039,17.067-17.067h8.533    v-17.067c0-4.713,3.82-8.533,8.533-8.533s8.533,3.821,8.533,8.533v17.067c-0.028,9.414-7.652,17.039-17.067,17.067h-8.533v8.533    C349.857,393.44,342.233,401.065,332.818,401.093z M366.952,494.959c-5.035,0.016-9.818-2.203-13.056-6.059    c2.475-1.28,5.035-2.645,7.509-4.011c0.512-0.256,1.109-0.597,1.707-0.939c4.267-2.475,8.533-5.12,12.629-7.851    c1.195-0.853,2.389-1.621,3.584-2.475c1.109-0.768,2.219-1.621,3.328-2.389c0.925,2.096,1.391,4.365,1.365,6.656    C383.991,487.307,376.366,494.932,366.952,494.959z M392.552,401.093h-8.533v8.533c-0.028,9.414-7.652,17.039-17.067,17.067    h-17.067c-4.713,0-8.533-3.82-8.533-8.533s3.82-8.533,8.533-8.533h17.067v-8.533c0.028-9.414,7.652-17.039,17.067-17.067h8.533    v-17.067c0-4.713,3.821-8.533,8.533-8.533s8.533,3.82,8.533,8.533v17.067C409.591,393.44,401.966,401.065,392.552,401.093z     M435.56,413.125c0.939-1.621,1.877-3.157,2.816-4.779c2.616-4.648,4.981-9.434,7.083-14.336c2.155-0.936,4.477-1.43,6.827-1.451    c9.414,0.028,17.039,7.652,17.067,17.067c-0.012,9.438-7.673,17.078-17.111,17.066c-8.04-0.01-14.985-5.624-16.681-13.482V413.125    z M435.089,454.425c-1.067,8.54-8.331,14.946-16.937,14.935c-8.132-0.021-15.125-5.765-16.725-13.739    c1.707-1.536,3.328-3.158,4.949-4.779l0.512-0.512c2.389-2.304,4.608-4.693,6.741-7.168c1.451-1.621,2.816-3.157,4.182-4.864    c0.853-0.939,1.707-1.877,2.475-2.901C429.628,436.563,436.256,445.082,435.089,454.425z M464.317,78.021    c-6.912,26.283-13.995,45.141-19.541,51.712c-8.138,10.189-20.332,16.302-33.365,16.725c-1.195,0-2.304-0.085-3.413-0.171    c-5.785-0.458-11.279-2.727-15.701-6.485c-6.659-5.798-10.461-14.211-10.411-23.04c-0.028-1.623,0.029-3.247,0.171-4.864    c1.017-9.445,4.853-18.365,11.008-25.6c5.547-6.571,22.784-16.811,47.531-28.075c5.978-2.814,13.048-1.88,18.091,2.389    C463.768,64.84,465.961,71.617,464.317,78.021z" fill="#FFFFFF"/>
	</g>
</g>
<g>
	<g>
		<path d="M278.12,320.026c-1.094-1.958-2.475-3.741-4.096-5.291c-0.744-0.825-1.574-1.569-2.475-2.219    c-9.152-7.054-21.909-7.054-31.061,0c-0.901,0.65-1.731,1.394-2.475,2.219c-1.621,1.55-3.002,3.333-4.096,5.291    c-0.802,1.362-1.487,2.789-2.048,4.267h48.725L278.12,320.026z" fill="#FFFFFF"/>
	</g>
</g>
<g>
	<g>
		<path d="M196.285,204.826c-18.851,0-34.133,15.282-34.133,34.133s15.282,34.133,34.133,34.133s34.133-15.282,34.133-34.133    C230.394,220.118,215.126,204.851,196.285,204.826z M213.181,249.199c-0.093,0.535-0.265,1.053-0.512,1.536    c-0.186,0.544-0.445,1.06-0.768,1.536l-1.024,1.28c-0.834,0.77-1.785,1.403-2.816,1.877c-2.088,0.796-4.397,0.796-6.485,0    c-1.02-0.495-1.967-1.127-2.816-1.877l-1.024-1.28c-0.323-0.476-0.582-0.992-0.768-1.536c-0.247-0.483-0.419-1.001-0.512-1.536    c-0.099-0.564-0.156-1.134-0.171-1.707c0.015-0.544,0.072-1.086,0.171-1.621c0.08-0.565,0.253-1.113,0.512-1.621    c0.17-0.525,0.43-1.016,0.768-1.451c0.341-0.512,0.683-0.939,1.024-1.365c0.83-0.753,1.782-1.359,2.816-1.792    c2.078-0.853,4.408-0.853,6.485,0c1.044,0.413,2,1.021,2.816,1.792c0.341,0.427,0.683,0.853,1.024,1.365    c0.338,0.435,0.598,0.926,0.768,1.451c0.259,0.508,0.432,1.056,0.512,1.621c0.099,0.535,0.156,1.077,0.171,1.621    C213.337,248.065,213.28,248.636,213.181,249.199z" fill="#FFFFFF"/>
	</g>
</g>
<g>
	<g>
		<path d="M378.643,212.421c-10.661-25.294-35.442-41.736-62.891-41.728c-3.513,0.069-7.018,0.354-10.496,0.853    c-3.899,0.534-7.651-1.696-9.045-5.376c-8.021-20.821-34.731-34.645-57.088-37.632c-12.288-1.621-18.261,0.768-19.029,1.877    c0.121,0.938,0.441,1.84,0.939,2.645c6.223,10.509,8.091,23.034,5.205,34.901c-1.389,4.458-6.107,6.97-10.581,5.632    c-6.27-1.952-12.803-2.931-19.371-2.901c-26.208,0.159-50.056,15.176-61.525,38.741c-16.331,33.955-2.043,74.72,31.912,91.051    c9.239,4.443,19.361,6.748,29.613,6.741h25.6l0.256-0.256c0.931-1.271,1.958-2.469,3.072-3.584    c0.703-0.804,1.474-1.546,2.304-2.219c0.586-0.585,1.213-1.127,1.877-1.621c0.624-0.586,1.311-1.101,2.048-1.536    c0.385-0.342,0.816-0.63,1.28-0.853c0.293-0.229,0.607-0.429,0.939-0.597c0.795-0.533,1.621-1.018,2.475-1.451l1.536-0.768    c1.024-0.512,2.048-0.939,3.157-1.365c0.427-0.171,0.939-0.341,1.451-0.512c3.068-1.047,6.246-1.734,9.472-2.048    c2.834-0.341,5.699-0.341,8.533,0c3.226,0.314,6.404,1.001,9.472,2.048c0.512,0.171,1.024,0.341,1.451,0.512    c1.109,0.427,2.133,0.853,3.157,1.365l1.536,0.768c0.854,0.433,1.68,0.917,2.475,1.451c0.771,0.434,1.512,0.918,2.219,1.451    c0.723,0.456,1.407,0.97,2.048,1.536c0.664,0.494,1.292,1.036,1.877,1.621c0.554,0.438,1.068,0.923,1.536,1.451    c0.085,0.085,0.256,0.171,0.341,0.341l0.085,0.085c0.085,0.085,0.256,0.171,0.341,0.341c1.199,1.199,2.311,2.483,3.328,3.84h25.6    c37.682-0.05,68.217-30.585,68.267-68.267C384.05,229.84,382.22,220.809,378.643,212.421z M196.285,290.159    c-28.277,0-51.2-22.923-51.2-51.2s22.923-51.2,51.2-51.2s51.2,22.923,51.2,51.2C247.463,267.227,224.553,290.137,196.285,290.159z     M256.018,199.365c-2.596-0.012-5.046-1.206-6.656-3.243c-2.925-3.68-6.244-7.028-9.899-9.984    c-2.739-2.318-3.758-6.089-2.56-9.472c1.205-3.391,4.422-5.65,8.021-5.632h22.187c3.599-0.018,6.816,2.241,8.021,5.632    c1.198,3.383,0.179,7.154-2.56,9.472c-3.654,2.956-6.974,6.304-9.899,9.984C261.064,198.159,258.615,199.352,256.018,199.365z     M315.752,290.159c-28.268-0.022-51.178-22.932-51.2-51.2c0-28.277,22.923-51.2,51.2-51.2s51.2,22.923,51.2,51.2    S344.029,290.159,315.752,290.159z" fill="#FFFFFF"/>
	</g>
</g>
<g>
	<g>
		<path d="M231.869,341.359c3.618,10.233,13.296,17.072,24.149,17.067c10.854,0.006,20.531-6.834,24.149-17.067H231.869z" fill="#FFFFFF"/>
	</g>
</g>
<g>
	<g>
		<path d="M315.752,204.826c-18.851,0-34.133,15.282-34.133,34.133s15.282,34.133,34.133,34.133    c18.841-0.025,34.108-15.292,34.133-34.133C349.885,220.108,334.603,204.826,315.752,204.826z M330.344,253.551    c-3.365,3.3-8.752,3.3-12.117,0c-0.79-0.802-1.4-1.761-1.792-2.816c-0.438-1.026-0.67-2.127-0.683-3.243    c0.017-2.237,0.905-4.379,2.475-5.973c2.458-2.408,6.102-3.144,9.301-1.877c3.191,1.303,5.28,4.404,5.291,7.851    C332.786,249.752,331.902,251.915,330.344,253.551z" fill="#FFFFFF"/>
	</g>
</g>
<g>
</g>
<g>
</g>
<g>
</g>
<g>
</g>
<g>
</g>
<g>
</g>
<g>
</g>
<g>
</g>
<g>
</g>
<g>
</g>
<g>
</g>
<g>
</g>
<g>
</g>
<g>
</g>
<g>
</g>
</svg>
