<?xml version="1.0" encoding="iso-8859-1"?>
<!-- Generator: Adobe Illustrator 19.0.0, SVG Export Plug-In . SVG Version: 6.00 Build 0)  -->
<svg xmlns="http://www.w3.org/2000/svg" xmlns:xlink="http://www.w3.org/1999/xlink" version="1.1" id="Layer_1" x="0px" y="0px" viewBox="0 0 512.016 512.016" style="enable-background:new 0 0 512.016 512.016;" xml:space="preserve" width="512px" height="512px">
<g>
	<g>
		<path d="M394.333,205.736c-13.333-31.598-44.297-52.134-78.592-52.125c-2.204,0-4.346,0.117-6.417,0.296    c-13.067-24.754-43.767-39.225-68.463-42.35c-16.8-2.133-29.137,1.079-34.758,9.004c-4.045,6.063-4.2,13.924-0.396,20.142    c2.341,4.412,3.947,9.176,4.754,14.104c-4.687-0.8-9.433-1.2-14.187-1.196c-32.74,0.171-62.544,18.91-76.887,48.341    c-5.59,11.529-8.478,24.18-8.446,36.992c0.052,47.107,38.227,85.281,85.333,85.333h18.039c-0.615,2.809-0.941,5.675-0.972,8.55    c0,23.564,19.102,42.667,42.667,42.667s42.667-19.103,42.667-42.667c-0.031-2.876-0.357-5.741-0.972-8.55h18.039    c47.107-0.052,85.281-38.227,85.333-85.333C401.1,227.533,398.806,216.235,394.333,205.736z M256.008,358.428    c-10.845-0.012-20.51-6.846-24.137-17.067h48.275C276.518,351.582,266.853,358.416,256.008,358.428z M231.891,324.295    c0.534-1.483,1.201-2.916,1.992-4.279c7.041-12.22,22.654-16.418,34.874-9.377c3.898,2.246,7.134,5.483,9.38,9.382    c0.789,1.363,1.454,2.794,1.987,4.275H231.891z M315.741,307.211h-25.629c-0.07-0.094-0.155-0.174-0.226-0.268    c-0.218-0.285-0.467-0.539-0.692-0.818c-0.885-1.114-1.825-2.182-2.817-3.201c-0.365-0.37-0.756-0.705-1.133-1.061    c-0.915-0.864-1.849-1.699-2.833-2.477c-0.444-0.351-0.903-0.674-1.359-1.007c-0.981-0.714-1.983-1.389-3.02-2.017    c-0.489-0.295-0.981-0.578-1.481-0.853c-1.072-0.591-2.167-1.13-3.287-1.627c-0.499-0.222-0.994-0.446-1.502-0.649    c-1.199-0.479-2.422-0.886-3.664-1.255c-0.457-0.136-0.905-0.292-1.367-0.413c-1.447-0.373-2.913-0.669-4.391-0.887    c-0.281-0.042-0.553-0.112-0.834-0.149c-3.647-0.513-7.348-0.513-10.996,0c-0.282,0.037-0.554,0.107-0.834,0.149    c-1.478,0.218-2.944,0.514-4.391,0.887c-0.462,0.121-0.91,0.277-1.367,0.413c-1.242,0.37-2.466,0.777-3.666,1.256    c-0.507,0.202-1,0.426-1.497,0.647c-1.12,0.498-2.216,1.036-3.287,1.627c-0.502,0.277-0.995,0.559-1.485,0.856    c-1.035,0.627-2.034,1.3-3.014,2.013c-0.459,0.333-0.919,0.659-1.365,1.01c-0.983,0.776-1.916,1.611-2.83,2.473    c-0.378,0.356-0.769,0.692-1.134,1.063c-0.995,1.022-1.939,2.094-2.826,3.212c-0.22,0.274-0.465,0.522-0.678,0.803    c-0.073,0.095-0.159,0.178-0.231,0.273h-25.629c-37.685-0.043-68.224-30.582-68.267-68.267    c-0.028-10.236,2.278-20.343,6.741-29.554c11.472-23.56,35.322-38.566,61.525-38.712c6.55-0.018,13.066,0.947,19.329,2.862    c4.483,1.376,9.237-1.117,10.654-5.588c2.867-11.868,0.972-24.387-5.279-34.875c-0.446-0.835-0.762-1.733-0.938-2.662    c0.842-1.084,6.813-3.5,19.054-1.875c22.342,2.946,49.117,16.804,57.071,37.592c1.429,3.681,5.184,5.912,9.1,5.408    c3.469-0.518,6.968-0.806,10.475-0.863c27.448-0.002,52.226,16.441,62.888,41.733l0.004,0.009    c3.568,8.387,5.397,17.411,5.375,26.525C383.964,276.629,353.426,307.168,315.741,307.211z" fill="#55b5f7"/>
	</g>
</g>
<g>
	<g>
		<path d="M273.661,174.098c-1.621-1.95-4.025-3.078-6.561-3.078h-22.184c-4.713,0-8.533,3.821-8.533,8.534    c0,2.536,1.128,4.94,3.078,6.561c3.624,2.992,6.932,6.349,9.871,10.017c2.937,3.686,8.306,4.294,11.992,1.358    c0.502-0.4,0.958-0.855,1.357-1.358c2.939-3.668,6.247-7.024,9.871-10.017C276.178,183.103,276.674,177.722,273.661,174.098z" fill="#55b5f7"/>
	</g>
</g>
<g>
	<g>
		<path d="M196.274,187.762c-28.277,0-51.2,22.923-51.2,51.2c0,28.277,22.923,51.2,51.2,51.2c28.264-0.031,51.169-22.936,51.2-51.2    C247.474,210.685,224.551,187.762,196.274,187.762z M196.274,273.095c-18.851,0-34.133-15.282-34.133-34.133    s15.282-34.133,34.133-34.133s34.133,15.282,34.133,34.133C230.386,257.804,215.117,273.073,196.274,273.095z" fill="#55b5f7"/>
	</g>
</g>
<g>
	<g>
		<path d="M315.741,187.762c-28.277,0-51.2,22.923-51.2,51.2c0.031,28.264,22.936,51.169,51.2,51.2c28.277,0,51.2-22.923,51.2-51.2    C366.941,210.685,344.018,187.762,315.741,187.762z M315.741,273.095c-18.851,0-34.133-15.282-34.133-34.133    c0.022-18.842,15.291-34.112,34.133-34.133c18.851,0,34.133,15.282,34.133,34.133S334.592,273.095,315.741,273.095z" fill="#55b5f7"/>
	</g>
</g>
<g>
	<g>
		<path d="M213.17,245.857c-0.081-0.566-0.255-1.115-0.513-1.625c-0.172-0.524-0.433-1.014-0.771-1.45    c-0.338-0.513-0.679-0.938-1.021-1.363c-0.816-0.772-1.772-1.382-2.817-1.796c-2.079-0.85-4.409-0.85-6.487,0    c-1.033,0.434-1.984,1.041-2.813,1.796c-0.341,0.425-0.683,0.85-1.025,1.362c-0.338,0.436-0.599,0.926-0.771,1.45    c-0.259,0.51-0.43,1.059-0.508,1.625c-0.1,0.535-0.157,1.077-0.171,1.621c0.013,0.572,0.071,1.141,0.171,1.704    c0.091,0.535,0.263,1.053,0.508,1.538c0.188,0.544,0.447,1.062,0.771,1.538c0.341,0.425,0.683,0.85,1.025,1.279    c0.848,0.75,1.794,1.38,2.813,1.875c2.089,0.8,4.399,0.8,6.487,0c1.031-0.474,1.982-1.107,2.817-1.875    c0.341-0.429,0.683-0.854,1.021-1.279c0.324-0.476,0.583-0.993,0.771-1.538c0.245-0.485,0.418-1.003,0.513-1.538    c0.098-0.563,0.155-1.133,0.171-1.704C213.326,246.934,213.268,246.392,213.17,245.857z" fill="#55b5f7"/>
	</g>
</g>
<g>
	<g>
		<path d="M327.516,239.624c-3.199-1.265-6.843-0.529-9.3,1.879c-2.44,2.409-3.152,6.068-1.796,9.217    c0.394,1.055,1.006,2.015,1.796,2.817c3.365,3.3,8.752,3.3,12.117,0c1.557-1.637,2.441-3.8,2.475-6.059    C332.797,244.03,330.707,240.929,327.516,239.624z" fill="#55b5f7"/>
	</g>
</g>
<g>
	<g>
		<path d="M506.495,3.515c-4.13-3.47-9.805-4.455-14.862-2.579c-38.237,13.721-105.287,40.217-124.762,63.5    c-5.345,6.469-9.702,13.695-12.929,21.441c-27.906-22.079-62.351-34.272-97.933-34.666c-35.582,0.394-70.027,12.588-97.932,34.669    c-3.23-7.752-7.59-14.983-12.939-21.457C125.67,41.153,58.62,14.657,20.449,0.961C15.377-0.947,9.669,0.029,5.52,3.515    c-4.191,3.493-6.211,8.949-5.304,14.329c6.921,40.088,21.433,110.779,40.871,133.829c11.542,13.959,27.469,23.6,45.188,27.354    c-2.459,5.267-4.878,10.72-7.263,16.63c-1.087,2.787-2.171,5.646-3.254,8.508l-0.396,1.05    C60.873,242.432,52.709,281.81,51.208,321.72c0,18.25,2.832,36.39,8.393,53.772c-18.847,0.07-34.069,15.406-33.999,34.254    c0.07,18.803,15.336,34.006,34.139,33.999c0.427,0,0.826-0.105,1.249-0.121c-0.791,2.818-1.211,5.727-1.249,8.654    c0.022,18.842,15.291,34.112,34.133,34.133c6.152-0.03,12.179-1.74,17.43-4.945c1.865,18.642,18.49,32.242,37.132,30.377    c10.472-1.048,19.865-6.897,25.425-15.833c52.686,21.336,111.607,21.335,164.293,0c9.897,15.907,30.816,20.78,46.724,10.882    c8.936-5.56,14.786-14.953,15.833-25.425c5.251,3.206,11.278,4.916,17.43,4.945c18.842-0.022,34.112-15.291,34.133-34.133    c-0.039-2.927-0.459-5.836-1.249-8.654c0.423,0.016,0.823,0.121,1.249,0.121c18.848,0.006,34.131-15.269,34.137-34.116    c0.006-18.802-15.197-34.066-33.999-34.136c5.563-17.382,8.395-35.522,8.395-53.772c-1.501-39.91-9.665-79.287-24.154-116.504    l-0.012-0.029c-3.438-9.326-7.046-17.951-10.88-26.162c17.705-3.754,33.619-13.389,45.151-27.338    c19.454-23.063,33.967-93.754,40.887-133.842l0.004-0.029C512.702,12.444,510.681,7,506.495,3.515z M54.145,140.686    C42.212,126.532,28.587,80.803,17.578,18.069c59.825,21.658,102.513,43.013,114.458,57.292    c5.422,6.482,9.576,13.927,12.246,21.946c-0.398,0.366-0.76,0.796-1.156,1.165c-4.155,3.877-8.206,7.937-12.127,12.224    c-0.398,0.435-0.798,0.864-1.193,1.303c-0.944-9.461-4.726-18.417-10.848-25.692c-5.5-6.554-22.821-16.808-47.521-28.142    c-8.596-3.936-18.755-0.159-22.69,8.437c-1.641,3.585-1.995,7.626-1.001,11.442c6.862,26.279,13.958,45.121,19.471,51.692    c8.181,10.174,20.39,16.278,33.438,16.717c1.148-0.031,2.293-0.119,3.431-0.266c-3.123,4.965-6.096,10.148-8.988,15.447    c-0.285,0.522-0.607,0.99-0.889,1.515C78.486,161.018,64.164,152.988,54.145,140.686z M113.099,116.274    c0.083,3.934-1.473,7.725-4.296,10.467c-2.305,1.842-5.202,2.783-8.15,2.646c-8.004-0.424-15.432-4.297-20.362-10.617    c-1.725-2.058-7.971-14.163-15.967-45.092c29.017,13.313,39.838,21.55,41.558,23.6    C110.487,102.54,113.048,109.281,113.099,116.274z M56.212,426.31c-7.893-1.666-13.54-8.632-13.538-16.699    c-0.022-9.404,7.584-17.045,16.988-17.067c2.371-0.005,4.716,0.484,6.887,1.438c1.303,2.998,2.744,5.996,4.271,8.987    c0.094,0.185,0.169,0.371,0.264,0.556c1.659,3.22,3.44,6.426,5.344,9.616C74.482,422.36,65.431,428.256,56.212,426.31z     M93.874,469.345c-9.446-0.02-17.087-7.694-17.066-17.14c0.019-8.575,6.384-15.811,14.887-16.922    c1.798,2.243,3.748,4.381,5.655,6.55c0.96,1.093,1.858,2.224,2.845,3.296c3.336,3.626,6.796,7.152,10.412,10.525    C108.989,463.612,101.996,469.334,93.874,469.345z M145.074,494.944c-9.439-0.013-17.08-7.675-17.067-17.114    c0.003-2.265,0.456-4.506,1.333-6.594c0.434,0.319,0.906,0.587,1.343,0.903c8.271,5.971,16.978,11.314,26.047,15.984    c0.475,0.245,0.92,0.539,1.397,0.78C154.895,492.761,150.108,494.977,145.074,494.944z M373.535,493.611    c-2.088,0.877-4.329,1.33-6.594,1.333c-5.034,0.032-9.821-2.183-13.054-6.042c0.482-0.243,0.932-0.541,1.411-0.788    c9.07-4.671,17.777-10.015,26.048-15.986c0.432-0.312,0.898-0.578,1.328-0.893C386.329,479.939,382.237,489.956,373.535,493.611z     M435.079,454.407c-1.073,8.537-8.334,14.94-16.938,14.938c-8.121-0.013-15.111-5.74-16.721-13.7    c3.644-3.4,7.125-6.957,10.484-10.613c1.017-1.106,1.948-2.271,2.937-3.399c1.828-2.085,3.704-4.135,5.433-6.288    C429.626,436.52,436.255,445.055,435.079,454.407z M467.903,402.724c0.953,2.171,1.443,4.516,1.438,6.887    c0.003,9.422-7.632,17.064-17.055,17.067c-8.067,0.003-15.034-5.645-16.699-13.538c1.901-3.182,3.681-6.383,5.339-9.604    c0.081-0.158,0.144-0.315,0.225-0.472c1.544-3.022,2.999-6.053,4.316-9.082C454.076,390.2,464.122,394.114,467.903,402.724z     M443.741,321.72c0.015,21.618-4.355,43.015-12.846,62.896c-3.195,7.707-7.023,15.135-11.446,22.208    c-3.107,5.124-6.489,10.076-10.133,14.833c-6.71,8.744-14.23,16.837-22.458,24.171l-1.613,1.487    c-2.013,1.746-4.079,3.521-6.242,5.225c-12.301,9.876-25.799,18.159-40.175,24.654c-52.685,23.669-112.98,23.666-165.662-0.009    c-14.391-6.506-27.904-14.804-40.217-24.695c-1.65-1.3-3.267-2.662-4.942-4.105l-2.85-2.558    c-8.229-7.334-15.748-15.426-22.458-24.171l-0.002-0.002c-3.664-4.787-7.065-9.768-10.19-14.923    c-4.417-7.077-8.24-14.508-11.429-22.217c-8.467-19.852-12.823-41.214-12.804-62.796c1.587-37.868,9.385-75.219,23.083-110.558    l3.517-9.213c3.829-9.492,7.713-17.983,11.879-26c1.811-3.519,3.673-6.962,5.585-10.33c4.865-8.558,10.222-16.828,16.044-24.766    c9.086-12.551,19.538-24.055,31.162-34.3c26.414-24.089,60.718-37.701,96.463-38.275c35.74,0.574,70.04,14.181,96.454,38.263    c5.21,4.549,10.178,9.37,14.881,14.442c2.828,3.044,5.571,6.241,8.271,9.515c11.485,14.055,21.428,29.301,29.661,45.477    c5.852,11.367,10.978,23.094,15.35,35.108C434.34,246.445,442.15,283.823,443.741,321.72z M398.916,116.269    c0.051-6.99,2.612-13.728,7.217-18.987c1.721-2.054,12.542-10.292,41.621-23.546c-8.058,30.871-14.304,42.975-16.029,45.033    c-4.93,6.32-12.358,10.193-20.362,10.617c-2.947,0.137-5.842-0.803-8.146-2.646C400.389,123.999,398.832,120.205,398.916,116.269z     M457.853,140.699L457.853,140.699c-10.014,12.296-24.331,20.322-40.046,22.45c-0.288-0.534-0.616-1.01-0.905-1.542    c-2.888-5.29-5.857-10.465-8.975-15.42c1.139,0.147,2.285,0.236,3.434,0.266c13.048-0.439,25.257-6.542,33.438-16.717    c5.513-6.571,12.608-25.412,19.471-51.692c2.384-9.147-3.099-18.495-12.247-20.879c-3.818-0.995-7.863-0.64-11.449,1.004    c-24.695,11.329-42.017,21.583-47.517,28.142c-6.123,7.273-9.905,16.227-10.848,25.687c-0.392-0.435-0.788-0.86-1.182-1.291    c-3.938-4.307-8.007-8.384-12.18-12.278c-0.382-0.356-0.731-0.77-1.114-1.123c2.666-8.014,6.818-15.455,12.237-21.933    c11.95-14.288,54.604-35.629,114.467-57.304C483.424,80.819,469.803,126.536,457.853,140.699z" fill="#55b5f7"/>
	</g>
</g>
<g>
	<g>
		<path d="M196.274,384.011h-17.067v-8.533c-0.009-9.422-7.645-17.057-17.067-17.067h-8.533v-17.067    c0-4.713-3.821-8.533-8.533-8.533s-8.533,3.821-8.533,8.533v17.067c0.009,9.422,7.645,17.057,17.067,17.067h8.533v8.533    c0.009,9.422,7.645,17.057,17.067,17.067h17.067c4.713,0,8.533-3.821,8.533-8.533    C204.808,387.832,200.987,384.011,196.274,384.011z" fill="#55b5f7"/>
	</g>
</g>
<g>
	<g>
		<path d="M162.141,409.611h-17.067v-8.533c-0.009-9.422-7.645-17.057-17.067-17.067h-8.533v-17.067c0-4.713-3.82-8.533-8.533-8.533    s-8.533,3.82-8.533,8.533v17.067c0.009,9.422,7.645,17.057,17.067,17.067h8.533v8.533c0.009,9.422,7.645,17.057,17.067,17.067    h17.067c4.713,0,8.533-3.82,8.533-8.533S166.854,409.611,162.141,409.611z" fill="#55b5f7"/>
	</g>
</g>
<g>
	<g>
		<path d="M366.941,332.811c-4.713,0-8.533,3.821-8.533,8.533v17.067h-8.533c-9.422,0.009-17.057,7.645-17.067,17.067v8.533h-17.067    c-4.713,0-8.533,3.821-8.533,8.533c0,4.713,3.82,8.533,8.533,8.533h17.067c9.422-0.009,17.057-7.645,17.067-17.067v-8.533h8.533    c9.422-0.009,17.057-7.645,17.067-17.067v-17.067C375.474,336.632,371.654,332.811,366.941,332.811z" fill="#55b5f7"/>
	</g>
</g>
<g>
	<g>
		<path d="M401.074,358.411c-4.713,0-8.533,3.82-8.533,8.533v17.067h-8.533c-9.422,0.009-17.057,7.645-17.067,17.067v8.533h-17.067    c-4.713,0-8.533,3.82-8.533,8.533s3.82,8.533,8.533,8.533h17.067c9.422-0.009,17.057-7.645,17.067-17.067v-8.533h8.533    c9.422-0.009,17.057-7.645,17.067-17.067v-17.067C409.608,362.232,405.787,358.411,401.074,358.411z" fill="#55b5f7"/>
	</g>
</g>
<g>
</g>
<g>
</g>
<g>
</g>
<g>
</g>
<g>
</g>
<g>
</g>
<g>
</g>
<g>
</g>
<g>
</g>
<g>
</g>
<g>
</g>
<g>
</g>
<g>
</g>
<g>
</g>
<g>
</g>
</svg>
